<svg preserveAspectRatio="none" viewBox="0 0 161 63" fill="none" xmlns="http://www.w3.org/2000/svg">
<path d="M11.772 47.288C8.58 47.288 6.024 46.688 4.104 45.488C2.184 44.264 1.224 42.404 1.224 39.908C1.224 38.588 1.452 37.58 1.908 36.884C2.364 36.188 3.036 35.84 3.924 35.84C4.572 35.84 5.1 36.008 5.508 36.344C5.916 36.68 6.12 37.112 6.12 37.64C6.12 38.12 6.084 38.54 6.012 38.9C6.012 38.996 5.988 39.164 5.94 39.404C5.916 39.644 5.904 39.896 5.904 40.16C5.904 41.24 6.444 42.044 7.524 42.572C8.628 43.1 10.164 43.364 12.132 43.364C14.172 43.364 15.768 43.004 16.92 42.284C18.072 41.54 18.648 40.508 18.648 39.188C18.648 38.372 18.384 37.676 17.856 37.1C17.328 36.5 16.668 36.008 15.876 35.624C15.084 35.216 13.968 34.724 12.528 34.148C10.68 33.428 9.168 32.744 7.992 32.096C6.84 31.448 5.844 30.572 5.004 29.468C4.188 28.34 3.78 26.948 3.78 25.292C3.78 23.564 4.236 22.028 5.148 20.684C6.084 19.34 7.416 18.296 9.144 17.552C10.896 16.808 12.948 16.436 15.3 16.436C17.052 16.436 18.66 16.7 20.124 17.228C21.588 17.732 22.752 18.512 23.616 19.568C24.504 20.624 24.948 21.92 24.948 23.456C24.948 24.968 24.72 26.108 24.264 26.876C23.808 27.644 23.136 28.028 22.248 28.028C21.624 28.028 21.096 27.836 20.664 27.452C20.256 27.068 20.052 26.612 20.052 26.084C20.052 25.628 20.088 25.208 20.16 24.824C20.232 24.104 20.268 23.648 20.268 23.456C20.268 22.448 19.776 21.68 18.792 21.152C17.808 20.624 16.584 20.36 15.12 20.36C13.056 20.36 11.472 20.744 10.368 21.512C9.288 22.256 8.748 23.312 8.748 24.68C8.748 25.592 9.024 26.372 9.576 27.02C10.152 27.668 10.86 28.208 11.7 28.64C12.54 29.072 13.716 29.588 15.228 30.188C17.052 30.932 18.516 31.604 19.62 32.204C20.724 32.804 21.66 33.62 22.428 34.652C23.22 35.684 23.616 36.956 23.616 38.468C23.616 41.3 22.536 43.484 20.376 45.02C18.24 46.532 15.372 47.288 11.772 47.288ZM46.3174 38.972C46.6294 38.972 46.8694 39.116 47.0374 39.404C47.2294 39.692 47.3254 40.088 47.3254 40.592C47.3254 41.552 47.0974 42.296 46.6414 42.824C45.5374 44.096 44.3974 45.14 43.2214 45.956C42.0694 46.772 40.7494 47.18 39.2614 47.18C38.0374 47.18 37.1134 46.832 36.4894 46.136C35.8654 45.416 35.5534 44.384 35.5534 43.04C35.5534 42.368 35.7214 41.168 36.0574 39.44C36.3694 37.928 36.5254 36.884 36.5254 36.308C36.5254 35.924 36.3934 35.732 36.1294 35.732C35.8174 35.732 35.3734 36.14 34.7974 36.956C34.2214 37.748 33.6454 38.804 33.0694 40.124C32.4934 41.444 32.0254 42.836 31.6654 44.3C31.2094 46.22 30.0814 47.18 28.2814 47.18C27.5614 47.18 27.0814 46.928 26.8414 46.424C26.6254 45.896 26.5174 44.96 26.5174 43.616C26.5174 42.848 26.5294 42.236 26.5534 41.78L26.5894 38.9C26.5894 35.204 26.9614 31.352 27.7054 27.344C28.4734 23.336 29.5894 19.976 31.0534 17.264C32.5414 14.528 34.3174 13.16 36.3814 13.16C37.4854 13.16 38.3734 13.64 39.0454 14.6C39.7414 15.536 40.0894 16.76 40.0894 18.272C40.0894 20.696 39.3814 23.216 37.9654 25.832C36.5494 28.424 34.2454 31.46 31.0534 34.94C30.9814 36.188 30.9454 37.472 30.9454 38.792C31.7374 36.752 32.6134 35.096 33.5734 33.824C34.5574 32.528 35.5174 31.604 36.4534 31.052C37.4134 30.5 38.2894 30.224 39.0814 30.224C40.6414 30.224 41.4214 31.004 41.4214 32.564C41.4214 33.5 41.1574 35.192 40.6294 37.64C40.1734 39.728 39.9454 41.108 39.9454 41.78C39.9454 42.74 40.2934 43.22 40.9894 43.22C41.4694 43.22 42.0334 42.932 42.6814 42.356C43.3534 41.756 44.2414 40.796 45.3454 39.476C45.6334 39.14 45.9574 38.972 46.3174 38.972ZM35.6254 16.724C35.1934 16.724 34.7134 17.348 34.1854 18.596C33.6574 19.82 33.1414 21.488 32.6374 23.6C32.1574 25.688 31.7614 27.968 31.4494 30.44C32.9374 28.688 34.1614 26.78 35.1214 24.716C36.1054 22.652 36.5974 20.78 36.5974 19.1C36.5974 18.332 36.5134 17.744 36.3454 17.336C36.1774 16.928 35.9374 16.724 35.6254 16.724ZM60.4637 38.972C60.7757 38.972 61.0157 39.116 61.1837 39.404C61.3757 39.692 61.4717 40.088 61.4717 40.592C61.4717 41.552 61.2437 42.296 60.7877 42.824C59.8997 43.904 58.6397 44.9 57.0077 45.812C55.3997 46.724 53.6717 47.18 51.8237 47.18C49.3037 47.18 47.3477 46.496 45.9557 45.128C44.5637 43.76 43.8677 41.888 43.8677 39.512C43.8677 37.856 44.2157 36.32 44.9117 34.904C45.6077 33.464 46.5677 32.324 47.7917 31.484C49.0397 30.644 50.4437 30.224 52.0037 30.224C53.3957 30.224 54.5117 30.644 55.3517 31.484C56.1917 32.3 56.6117 33.416 56.6117 34.832C56.6117 36.488 56.0117 37.916 54.8117 39.116C53.6357 40.292 51.6317 41.228 48.7997 41.924C49.3997 43.028 50.5397 43.58 52.2197 43.58C53.2997 43.58 54.5237 43.208 55.8917 42.464C57.2837 41.696 58.4837 40.7 59.4917 39.476C59.7797 39.14 60.1037 38.972 60.4637 38.972ZM51.3917 33.752C50.5037 33.752 49.7477 34.268 49.1237 35.3C48.5237 36.332 48.2237 37.58 48.2237 39.044V39.116C49.6397 38.78 50.7557 38.276 51.5717 37.604C52.3877 36.932 52.7957 36.152 52.7957 35.264C52.7957 34.808 52.6637 34.448 52.3997 34.184C52.1597 33.896 51.8237 33.752 51.3917 33.752ZM74.5965 38.972C74.9085 38.972 75.1485 39.116 75.3165 39.404C75.5085 39.692 75.6045 40.088 75.6045 40.592C75.6045 41.552 75.3765 42.296 74.9205 42.824C74.0325 43.904 72.7725 44.9 71.1405 45.812C69.5325 46.724 67.8045 47.18 65.9565 47.18C63.4365 47.18 61.4805 46.496 60.0885 45.128C58.6965 43.76 58.0005 41.888 58.0005 39.512C58.0005 37.856 58.3485 36.32 59.0445 34.904C59.7405 33.464 60.7005 32.324 61.9245 31.484C63.1725 30.644 64.5765 30.224 66.1365 30.224C67.5285 30.224 68.6445 30.644 69.4845 31.484C70.3245 32.3 70.7445 33.416 70.7445 34.832C70.7445 36.488 70.1445 37.916 68.9445 39.116C67.7685 40.292 65.7645 41.228 62.9325 41.924C63.5325 43.028 64.6725 43.58 66.3525 43.58C67.4325 43.58 68.6565 43.208 70.0245 42.464C71.4165 41.696 72.6165 40.7 73.6245 39.476C73.9125 39.14 74.2365 38.972 74.5965 38.972ZM65.5245 33.752C64.6365 33.752 63.8805 34.268 63.2565 35.3C62.6565 36.332 62.3565 37.58 62.3565 39.044V39.116C63.7725 38.78 64.8885 38.276 65.7045 37.604C66.5205 36.932 66.9285 36.152 66.9285 35.264C66.9285 34.808 66.7965 34.448 66.5325 34.184C66.2925 33.896 65.9565 33.752 65.5245 33.752ZM78.6133 33.644C78.5653 34.844 78.5413 35.78 78.5413 36.452C78.5413 38.18 78.6253 39.536 78.7933 40.52C78.9853 41.48 79.2853 42.176 79.6933 42.608C80.1253 43.016 80.7133 43.22 81.4573 43.22C81.8413 43.22 82.2973 43.1 82.8253 42.86C83.3533 42.62 83.8333 42.308 84.2653 41.924C84.5293 41.684 84.7933 41.564 85.0573 41.564C85.3453 41.564 85.5733 41.732 85.7413 42.068C85.9333 42.38 86.0293 42.764 86.0293 43.22C86.0293 43.676 85.9333 44.12 85.7413 44.552C85.5733 44.984 85.3093 45.344 84.9493 45.632C83.7013 46.664 82.2853 47.18 80.7013 47.18C78.4213 47.18 76.7533 46.232 75.6973 44.336C74.6413 42.416 74.1133 39.92 74.1133 36.848C74.1133 35.792 74.1493 34.724 74.2213 33.644H72.8173C72.0973 33.644 71.6053 33.512 71.3413 33.248C71.1013 32.984 70.9813 32.564 70.9813 31.988C70.9813 30.644 71.5213 29.972 72.6013 29.972H74.6533C75.0613 27.332 75.6853 24.92 76.5253 22.736C77.3653 20.552 78.3733 18.812 79.5493 17.516C80.7493 16.22 82.0333 15.572 83.4013 15.572C84.4093 15.572 85.2013 16.016 85.7773 16.904C86.3533 17.792 86.6413 18.908 86.6413 20.252C86.6413 23.972 85.0813 27.212 81.9613 29.972H85.9933C86.3773 29.972 86.6533 30.056 86.8213 30.224C86.9893 30.392 87.0733 30.704 87.0733 31.16C87.0733 32.816 85.7173 33.644 83.0053 33.644H78.6133ZM82.4293 19.028C82.0693 19.028 81.6613 19.484 81.2053 20.396C80.7733 21.284 80.3533 22.532 79.9453 24.14C79.5613 25.724 79.2373 27.488 78.9733 29.432C80.3893 28.208 81.4453 26.84 82.1413 25.328C82.8613 23.792 83.2213 22.4 83.2213 21.152C83.2213 19.736 82.9573 19.028 82.4293 19.028ZM124.972 25.544C124.972 27.584 124.444 29.456 123.388 31.16C122.332 32.864 120.796 34.256 118.78 35.336C116.764 36.416 114.364 37.052 111.58 37.244L110.032 45.92C109.432 49.256 107.8 50.924 105.136 50.924C103.672 50.924 102.316 50.492 101.068 49.628C99.8438 48.764 98.8598 47.444 98.1158 45.668C97.3718 43.892 96.9998 41.708 96.9998 39.116C96.9998 34.244 97.7798 30.116 99.3398 26.732C100.924 23.324 103.036 20.78 105.676 19.1C108.34 17.396 111.268 16.544 114.46 16.544C116.716 16.544 118.624 16.94 120.184 17.732C121.768 18.524 122.956 19.604 123.748 20.972C124.564 22.316 124.972 23.84 124.972 25.544ZM112.228 33.536C117.148 32.912 119.608 30.356 119.608 25.868C119.608 24.284 119.08 23 118.024 22.016C116.992 21.008 115.384 20.504 113.2 20.504C110.728 20.504 108.568 21.284 106.72 22.844C104.896 24.404 103.48 26.576 102.472 29.36C101.488 32.12 100.996 35.276 100.996 38.828C100.996 40.316 101.14 41.636 101.428 42.788C101.74 43.94 102.124 44.84 102.58 45.488C103.06 46.112 103.516 46.424 103.948 46.424C104.548 46.424 105.004 45.596 105.316 43.94L106.504 37.136C105.568 36.992 105.16 36.932 105.28 36.956C104.56 36.836 104.092 36.62 103.876 36.308C103.66 35.972 103.552 35.552 103.552 35.048C103.552 34.52 103.696 34.1 103.984 33.788C104.296 33.476 104.716 33.32 105.244 33.32C105.484 33.32 105.664 33.332 105.784 33.356C106.36 33.452 106.804 33.512 107.116 33.536C107.428 31.664 107.872 29.156 108.448 26.012C108.592 25.196 108.916 24.62 109.42 24.284C109.948 23.924 110.56 23.744 111.256 23.744C112.048 23.744 112.612 23.9 112.948 24.212C113.308 24.5 113.488 24.968 113.488 25.616C113.488 26 113.464 26.312 113.416 26.552L112.228 33.536ZM127.41 47.18C125.922 47.18 124.734 46.64 123.846 45.56C122.958 44.48 122.514 43.064 122.514 41.312C122.514 39.392 122.958 37.58 123.846 35.876C124.734 34.148 125.91 32.768 127.374 31.736C128.862 30.68 130.434 30.152 132.09 30.152C132.618 30.152 132.966 30.26 133.134 30.476C133.326 30.668 133.482 31.028 133.602 31.556C134.106 31.46 134.634 31.412 135.186 31.412C136.362 31.412 136.95 31.832 136.95 32.672C136.95 33.176 136.77 34.376 136.41 36.272C135.858 39.032 135.582 40.952 135.582 42.032C135.582 42.392 135.666 42.68 135.834 42.896C136.026 43.112 136.266 43.22 136.554 43.22C137.01 43.22 137.562 42.932 138.21 42.356C138.858 41.756 139.734 40.796 140.838 39.476C141.126 39.14 141.45 38.972 141.81 38.972C142.122 38.972 142.362 39.116 142.53 39.404C142.722 39.692 142.818 40.088 142.818 40.592C142.818 41.552 142.59 42.296 142.134 42.824C141.15 44.048 140.106 45.08 139.002 45.92C137.898 46.76 136.83 47.18 135.798 47.18C135.006 47.18 134.274 46.916 133.602 46.388C132.954 45.836 132.462 45.092 132.126 44.156C130.878 46.172 129.306 47.18 127.41 47.18ZM128.706 43.544C129.234 43.544 129.738 43.232 130.218 42.608C130.698 41.984 131.046 41.156 131.262 40.124L132.594 33.5C131.586 33.524 130.65 33.908 129.786 34.652C128.946 35.372 128.274 36.332 127.77 37.532C127.266 38.732 127.014 40.004 127.014 41.348C127.014 42.092 127.158 42.644 127.446 43.004C127.758 43.364 128.178 43.544 128.706 43.544ZM152.996 38.972C153.26 40.94 153.644 42.884 154.148 44.804C154.244 45.116 154.292 45.44 154.292 45.776C154.292 46.856 153.632 47.396 152.312 47.396C151.568 47.396 150.992 47.192 150.584 46.784C150.2 46.376 149.84 45.608 149.504 44.48L149.468 44.336C148.556 45.464 147.728 46.22 146.984 46.604C146.264 46.988 145.424 47.18 144.464 47.18C143 47.18 141.788 46.64 140.828 45.56C139.892 44.456 139.424 43.028 139.424 41.276C139.424 39.356 139.832 37.58 140.648 35.948C141.464 34.316 142.58 32.984 143.996 31.952C145.412 30.896 146.996 30.26 148.748 30.044C149.204 25.508 150.068 21.56 151.34 18.2C152.636 14.84 154.352 13.16 156.488 13.16C157.52 13.16 158.372 13.628 159.044 14.564C159.74 15.5 160.088 16.916 160.088 18.812C160.088 21.452 159.44 24.536 158.144 28.064C156.848 31.592 155.132 35.228 152.996 38.972ZM156.092 16.688C155.396 16.688 154.736 18.464 154.112 22.016C153.512 25.568 153.104 29.432 152.888 33.608C155.552 27.848 156.884 23.168 156.884 19.568C156.884 18.656 156.8 17.948 156.632 17.444C156.488 16.94 156.308 16.688 156.092 16.688ZM145.724 43.544C146.204 43.544 146.66 43.364 147.092 43.004C147.548 42.644 148.124 41.948 148.82 40.916C148.58 39.164 148.46 37.352 148.46 35.48C148.46 34.736 148.472 34.16 148.496 33.752C147.176 34.136 146.084 35.012 145.22 36.38C144.356 37.748 143.924 39.26 143.924 40.916C143.924 42.668 144.524 43.544 145.724 43.544Z" fill="#F57207"/>
</svg>
